<?xml version="1.0" encoding="UTF-8" standalone="no"?>
<!-- Created with Inkscape (http://www.inkscape.org/) -->

<svg
   version="1.1"
   id="svg1"
   width="400"
   height="400"
   viewBox="0 0 400 400"
   sodipodi:docname="smiley.svg"
   inkscape:export-filename="smiley.svg.png"
   inkscape:export-xdpi="96"
   inkscape:export-ydpi="96"
   inkscape:version="1.3.2 (091e20e, 2023-11-25, custom)"
   xmlns:inkscape="http://www.inkscape.org/namespaces/inkscape"
   xmlns:sodipodi="http://sodipodi.sourceforge.net/DTD/sodipodi-0.dtd"
   xmlns="http://www.w3.org/2000/svg"
   xmlns:svg="http://www.w3.org/2000/svg">
  <defs
     id="defs1" />
  <sodipodi:namedview
     id="namedview1"
     pagecolor="#ffffff"
     bordercolor="#000000"
     borderopacity="0.25"
     inkscape:showpageshadow="2"
     inkscape:pageopacity="0.0"
     inkscape:pagecheckerboard="0"
     inkscape:deskcolor="#d1d1d1"
     inkscape:zoom="0.72125677"
     inkscape:cx="216.28913"
     inkscape:cy="239.16587"
     inkscape:window-width="1920"
     inkscape:window-height="974"
     inkscape:window-x="-11"
     inkscape:window-y="-11"
     inkscape:window-maximized="1"
     inkscape:current-layer="g1" />
  <g
     inkscape:groupmode="layer"
     inkscape:label="Image"
     id="g1"
     style="display:inline">
    <path
       style="fill:#000000"
       d="m 244.93028,372.06724 c -2.46781,-0.73586 -3.19367,-1.48717 -3.19367,-3.30566 0,-2.12875 0.24059,-2.26384 2.52064,-1.41531 1.38636,0.51594 5.06799,0.93807 8.1814,0.93807 6.93557,0 9.37269,-2.09384 10.37031,-8.90958 l 0.67055,-4.58114 -3.63856,2.41693 c -6.74079,4.47761 -15.70855,2.11488 -18.71622,-4.93115 -2.02366,-4.74079 -1.90522,-14.78891 0.22615,-19.18537 3.39961,-7.01252 11.77651,-9.17465 18.42798,-4.75637 3.39195,2.25312 3.57647,2.27793 3.57647,0.48093 0,-1.37982 0.66764,-1.89475 2.45667,-1.89475 h 2.45668 l -0.0555,17.55416 c -0.0607,19.22044 -0.78974,22.93756 -5.11413,26.076 -3.11831,2.26312 -12.91695,3.07923 -18.1688,1.51324 z m 15.37589,-19.69172 c 2.05488,-1.93007 2.35551,-3.08956 2.35551,-9.08479 0,-8.99551 -1.95848,-11.90988 -8.28124,-12.3231 -3.60677,-0.23572 -4.75777,0.1349 -6.69833,2.15682 -2.84086,2.95995 -3.83351,11.00935 -2.02071,16.38592 2.09432,6.21156 9.5326,7.66681 14.64477,2.86515 z m -95.05077,6.41146 c -0.74238,-0.46066 -1.1669,-2.01257 -0.98267,-3.59229 0.27738,-2.37847 0.75128,-2.78124 3.27236,-2.78124 2.33007,0 3.01531,0.46474 3.26911,2.21715 0.54845,3.78696 -2.49133,6.05984 -5.5588,4.15638 z m 16.29272,-0.27746 c -1.88195,-0.6728 -2.70234,-1.6398 -2.70234,-3.18528 0,-2.21781 0.003,-2.21829 5.05106,-0.76984 6.13004,1.75893 12.11297,0.50949 13.16998,-2.75035 0.87883,-2.71035 -1.0286,-4.39958 -9.60232,-8.50383 -8.05502,-3.85595 -9.77211,-6.51925 -7.5653,-11.73422 2.09219,-4.94409 9.53161,-6.85635 17.86297,-4.59159 3.82699,1.04032 4.20068,1.51204 2.84939,3.59694 -0.61566,0.9499 -1.81452,1.02093 -5.08641,0.30134 -5.39701,-1.18696 -9.56885,-0.39891 -10.91418,2.06166 -1.41005,2.57895 0.30545,4.1388 9.23052,8.39301 6.37956,3.04087 7.20668,3.75687 8.00829,6.93252 0.70744,2.80262 0.53775,4.07351 -0.81344,6.09204 -3.11408,4.65211 -12.50246,6.65502 -19.48822,4.1576 z m 31.79779,-11.15726 c -2.37342,-6.20985 -5.13073,-13.34664 -6.12735,-15.85953 l -1.81203,-4.56889 h 2.83754 c 3.14671,0 2.46911,-1.26032 8.89114,16.53727 l 3.71124,10.2851 4.79473,-13.17072 c 4.47759,-12.29954 4.97348,-13.19085 7.49707,-13.47508 1.48629,-0.16739 2.70234,-0.0523 2.70234,0.25574 0,0.44394 -8.1849,21.86089 -11.32222,29.62619 -0.44805,1.10898 -1.73382,1.6794 -3.76861,1.67191 -3.04027,-0.0112 -3.15599,-0.18783 -7.40385,-11.30199 z m -19.65483,-56.1553 c -32.71303,-3.34711 -65.13748,-15.71422 -88.9809,-33.93848 -19.681572,-15.04324 -33.984432,-35.52552 -40.014049,-57.30176 -3.27922,-11.84306 -3.27922,-34.3268 0,-46.16986 6.029617,-21.77625 20.332477,-42.25853 40.014049,-57.30176 61.1531,-46.741203 161.80096,-46.741203 222.95406,0 19.68157,15.04323 33.98444,35.52551 40.01405,57.30176 3.27922,11.84306 3.27922,34.3268 0,46.16986 -15.21892,54.96384 -78.42966,92.98223 -153.31487,92.21191 -6.8337,-0.0703 -16.13625,-0.50755 -20.67234,-0.97167 z m 40.67551,-10.46423 c 39.74666,-4.34735 72.39527,-18.408 95.89695,-41.29957 15.1411,-14.74803 23.74052,-29.62301 27.53857,-47.63529 2.31227,-10.96592 2.31227,-18.88625 0,-29.85216 -3.79805,-18.01228 -12.39747,-32.88726 -27.53857,-47.63529 C 306.76186,91.418847 274.11325,77.358193 234.36659,73.010841 203.5042,69.63522 167.13865,75.689682 138.94148,88.898069 111.88723,101.57108 89.067886,123.4892 79.495619,145.99618 c -3.781015,8.89019 -6.752283,22.47666 -6.752283,30.87561 0,8.39894 2.971268,21.98541 6.752283,30.8756 9.572267,22.50699 32.391611,44.42511 59.445861,57.09812 28.14107,13.1821 64.62412,19.25613 95.42511,15.88722 z M 198.9905,246.0301 c -14.09339,-1.96905 -27.62256,-7.77563 -37.9915,-16.30554 -2.51941,-2.07257 -7.87761,-5.23894 -11.90712,-7.03638 -4.0295,-1.79744 -9.15543,-4.88556 -11.39096,-6.86248 -4.23168,-3.74216 -12.10502,-15.26801 -13.92992,-20.39212 -1.44361,-4.0535 0.88977,-9.53542 4.65523,-10.93675 6.23754,-2.32131 10.98756,0.7465 18.25942,11.79289 3.25388,4.94283 4.43081,5.85648 12.19563,9.46747 4.72681,2.19817 11.26307,6.18803 14.52502,8.86634 10.64241,8.73825 24.29985,13.23421 40.16502,13.22211 8.94261,-0.007 12.61269,-1.0253 24.72595,-6.86174 7.44839,-3.5888 11.14227,-6.0757 15.26242,-10.27542 2.98965,-3.04738 9.40157,-8.11439 14.2487,-11.26001 4.84714,-3.14562 10.58178,-7.28657 12.74365,-9.2021 7.2865,-6.45622 11.22686,-7.23494 16.13865,-3.18942 2.3036,1.89733 3.0234,3.28269 3.0234,5.819 0,6.62846 -5.69434,12.9354 -19.65338,21.76772 -4.59398,2.90676 -10.88498,7.89368 -13.97999,11.08206 -4.48369,4.61893 -7.97853,6.96742 -17.19672,11.55598 -15.96169,7.94529 -22.6968,9.83577 -34.51997,9.68945 -5.21263,-0.0645 -12.13072,-0.48799 -15.37353,-0.94106 z m -41.12524,-91.28594 c -2.86976,-3.33834 -4.10878,-9.58346 -3.14694,-15.86175 0.73677,-4.8091 4.62631,-10.10423 7.42209,-10.10423 2.79577,0 6.68532,5.29513 7.42208,10.10423 1.37011,8.9432 -2.51222,18.75194 -7.42208,18.75194 -0.98485,0 -2.90867,-1.30059 -4.27515,-2.89019 z m 88.83653,0.0553 c -2.63989,-2.58402 -4.30156,-9.26202 -3.64969,-14.66758 1.79363,-14.87355 12.28076,-14.87355 14.07439,0 0.94371,7.8256 -2.76408,16.54058 -7.03719,16.54058 -0.8107,0 -2.33508,-0.84285 -3.38751,-1.873 z"
       id="path1" />
  </g>
</svg>
